<svg preserveAspectRatio="none" width="100%" height="100%" overflow="visible" style="display: block;" viewBox="0 0 55 55" fill="none" xmlns="http://www.w3.org/2000/svg">
<g id="qlementine-icons:mac-24" clip-path="url(#clip0_0_81)">
<path id="Vector" d="M37.3187 0C37.8087 3.34263 36.4533 6.61658 34.6629 8.92895C32.7512 11.4016 29.4658 13.3247 26.2835 13.2332C25.7019 10.0279 27.1947 6.75395 29.0079 4.53316C30.9975 2.08342 34.4111 0.228947 37.3187 0.0228947V0ZM38.4635 13.7368C42.1037 13.7368 45.95 15.7378 48.6974 19.1858C39.6998 24.1539 41.165 37.1353 50.2542 40.6153C49.3087 42.8956 48.1502 45.0797 46.7971 47.1403C44.5489 50.5974 41.3711 54.9016 37.4561 54.9474C35.8397 54.9634 34.7774 54.4734 33.6327 53.9446C32.3071 53.3333 30.8624 52.6693 28.3211 52.6831C25.8027 52.6945 24.3374 53.3516 22.9866 53.956C21.8144 54.4826 20.7338 54.9703 19.1174 54.9542C15.1795 54.9199 12.1803 51.0392 9.93661 47.5821C3.64056 37.9206 2.99951 26.5648 6.86872 20.5663C9.61609 16.285 13.9661 13.7666 18.0642 13.7666C20.2438 13.7666 22.0021 14.3985 23.6735 15.0006C25.1937 15.5478 26.6498 16.0698 28.2753 16.0698C29.7909 16.0698 31.0456 15.5936 32.3963 15.0739C34.031 14.4489 35.8306 13.762 38.4635 13.762V13.7368Z" fill="var(--fill-0, black)"/>
</g>
<defs>
<clipPath id="clip0_0_81">
<rect width="54.9474" height="54.9474" fill="white"/>
</clipPath>
</defs>
</svg>
