<svg preserveAspectRatio="none" width="100%" height="100%" overflow="visible" style="display: block;" viewBox="0 0 22 22" fill="none" xmlns="http://www.w3.org/2000/svg">
<g id="Group">
<path id="Vector" d="M11 21C12.3135 21.0016 13.6143 20.7437 14.8278 20.2411C16.0412 19.7384 17.1434 19.0009 18.071 18.071C19.0009 17.1434 19.7384 16.0412 20.2411 14.8278C20.7437 13.6143 21.0016 12.3135 21 11C21.0016 9.68655 20.7437 8.38572 20.2411 7.17225C19.7384 5.95878 19.0009 4.85659 18.071 3.92901C17.1434 2.99909 16.0412 2.26162 14.8278 1.75897C13.6143 1.25631 12.3135 0.998388 11 1.00001C9.68655 0.998388 8.38572 1.25631 7.17225 1.75897C5.95878 2.26162 4.85659 2.99909 3.92901 3.92901C2.99909 4.85659 2.26162 5.95878 1.75897 7.17225C1.25631 8.38572 0.998388 9.68655 1.00001 11C0.998388 12.3135 1.25631 13.6143 1.75897 14.8278C2.26162 16.0412 2.99909 17.1434 3.92901 18.071C4.85659 19.0009 5.95878 19.7384 7.17225 20.2411C8.38572 20.7437 9.68655 21.0016 11 21Z" fill="var(--fill-0, white)" stroke="var(--stroke-0, white)" stroke-width="2" stroke-linejoin="round"/>
<path id="Vector_2" fill-rule="evenodd" clip-rule="evenodd" d="M11 4.50001C11.3315 4.50001 11.6495 4.6317 11.8839 4.86612C12.1183 5.10054 12.25 5.41849 12.25 5.75001C12.25 6.08153 12.1183 6.39947 11.8839 6.63389C11.6495 6.86831 11.3315 7.00001 11 7.00001C10.6685 7.00001 10.3505 6.86831 10.1161 6.63389C9.8817 6.39947 9.75001 6.08153 9.75001 5.75001C9.75001 5.41849 9.8817 5.10054 10.1161 4.86612C10.3505 4.6317 10.6685 4.50001 11 4.50001Z" fill="var(--fill-0, black)"/>
<path id="Vector_3" d="M11.25 16V9.00001H10.25M9.50001 16H13" stroke="var(--stroke-0, black)" stroke-width="2" stroke-linecap="round" stroke-linejoin="round"/>
</g>
</svg>
