<svg preserveAspectRatio="none" width="100%" height="100%" overflow="visible" style="display: block;" viewBox="0 0 26 26" fill="none" xmlns="http://www.w3.org/2000/svg">
<path id="Vector" d="M13 25L23.8413 19.3894C24.2627 19.1707 24.4733 19.0627 24.6267 18.9014C24.7625 18.7598 24.8654 18.59 24.928 18.404C25 18.192 25 17.956 25 17.4814V7.04403M13 25L2.15867 19.3894C1.73733 19.1707 1.52667 19.0627 1.37333 18.9014C1.23752 18.7598 1.13463 18.59 1.072 18.404C1 18.192 1 17.9547 1 17.4787V7.04403M13 25V12.916M25 7.04403L13 12.916M25 7.04403L13.9733 1.33736C13.6173 1.15336 13.44 1.06003 13.252 1.02403C13.0855 0.99199 12.9145 0.99199 12.748 1.02403C12.5613 1.06003 12.3827 1.15336 12.0253 1.33736L1 7.04403M1 7.04403L13 12.916" stroke="white" stroke-width="1.5" stroke-linecap="round" stroke-linejoin="round"/>
</svg>
