<svg preserveAspectRatio="none" width="100%" height="100%" overflow="visible" style="display: block;" viewBox="0 0 25 27" fill="none" xmlns="http://www.w3.org/2000/svg">
<g id="Group">
<path id="Vector" d="M12.166 21.3143H21.246C21.5996 21.3341 21.9523 21.263 22.2707 21.1078C22.589 20.9526 22.8622 20.7185 23.0644 20.4277C23.2665 20.1369 23.3908 19.7992 23.4254 19.4467C23.46 19.0943 23.4037 18.7388 23.262 18.4143C22.782 16.9636 20.8686 15.2236 20.8686 13.5116C20.8686 9.71164 20.8686 8.71164 18.9966 6.47697C18.3909 5.75768 17.6397 5.1747 16.7926 4.76631L15.7486 4.25964C15.5735 4.1539 15.4223 4.01268 15.305 3.84505C15.1877 3.67742 15.1067 3.4871 15.0673 3.28631C14.963 2.60952 14.6051 1.99775 14.0663 1.57509C13.5275 1.15243 12.8482 0.950518 12.166 1.01031C11.4961 0.970082 10.8353 1.181 10.3126 1.60185C9.78996 2.02271 9.44293 2.62329 9.33931 3.28631C9.29231 3.49403 9.20023 3.68888 9.06959 3.85708C8.93895 4.02527 8.77294 4.1627 8.58331 4.25964L7.53931 4.76631C6.69269 5.17486 5.94205 5.75783 5.33665 6.47697C3.46598 8.71164 3.46598 9.71164 3.46598 13.5116C3.46598 15.2236 1.63931 16.789 1.15931 18.3263C0.869978 19.2556 0.709978 21.3143 3.13264 21.3143H12.166Z" stroke="var(--stroke-0, #64748B)" stroke-width="1.5" stroke-linecap="round" stroke-linejoin="round"/>
<path id="Vector_2" d="M16.5166 21.3143C16.5281 21.8888 16.4233 22.4596 16.2087 22.9927C15.9942 23.5257 15.6741 24.0098 15.2678 24.4161C14.8615 24.8224 14.3773 25.1425 13.8443 25.3571C13.3113 25.5717 12.7405 25.6764 12.166 25.665C11.5914 25.6772 11.0202 25.5729 10.4869 25.3586C9.95366 25.1443 9.46927 24.8242 9.06292 24.4177C8.65658 24.0113 8.33669 23.5268 8.12251 22.9934C7.90832 22.4601 7.80428 21.8889 7.81664 21.3143" stroke="var(--stroke-0, #64748B)" stroke-width="1.5" stroke-linecap="round" stroke-linejoin="round"/>
</g>
</svg>
