<svg preserveAspectRatio="none" width="100%" height="100%" overflow="visible" style="display: block;" viewBox="0 0 32 32" fill="none" xmlns="http://www.w3.org/2000/svg">
<g id="nrk:offline">
<path id="Vector" d="M20.5467 29.3333L8.37067 2.66667H11.3027L13.2053 6.83467C14.1325 6.72113 15.0659 6.66503 16 6.66667C21.9449 6.65886 27.6593 8.96522 31.9333 13.0973L30.0813 15.0173C26.3047 11.3646 21.2541 9.32589 16 9.33333C15.4533 9.33333 14.912 9.35467 14.376 9.39733L16.1893 13.3707C20.3172 13.4131 24.2732 15.0299 27.2493 17.8907L25.4027 19.816C23.2347 17.7298 20.4334 16.4256 17.4413 16.1093L19.532 20.6907C20.6802 21.1426 21.7305 21.8117 22.6253 22.6613L21.1453 24.2213L23.4773 29.3333H20.5467ZM9.36667 22.72C10.5332 21.5932 11.9663 20.7804 13.532 20.3573L14.6613 22.8307C13.3648 23.0926 12.1703 23.7199 11.2187 24.6387L9.36667 22.72ZM10.7387 14.24C8.50085 15.0074 6.45735 16.2537 4.75067 17.892L6.59733 19.816C8.08792 18.3851 9.88496 17.3126 11.852 16.68L10.7387 14.24ZM0.0666667 13.0973C2.32417 10.9166 5.00528 9.22257 7.944 8.12L9.05467 10.5533C6.38981 11.5255 3.95871 13.0463 1.91867 15.0173L0.0666667 13.0973Z" fill="white"/>
</g>
</svg>
