<svg preserveAspectRatio="none" width="100%" height="100%" overflow="visible" style="display: block;" viewBox="0 0 14 14" fill="none" xmlns="http://www.w3.org/2000/svg">
<g id="gis:arrow">
<path id="Vector" d="M2.3926 0.25942C2.29002 0.252989 2.18729 0.269226 2.09169 0.306978C1.9961 0.344729 1.90999 0.403068 1.83948 0.477851C1.76897 0.552633 1.7158 0.642025 1.68374 0.739675C1.65167 0.837325 1.64151 0.940838 1.65396 1.04286L2.71194 12.395C2.77956 12.9464 3.43112 13.2033 3.85658 12.8463L6.08916 11.0358L7.09016 12.7697C7.66584 13.7668 8.5792 14.0118 9.57628 13.4361C10.5734 12.8604 10.8181 11.9468 10.2424 10.9497L9.2449 9.22208L11.8903 8.20792C12.4123 8.01794 12.5157 7.32508 12.0723 6.9909L2.76976 0.39858C2.66031 0.316288 2.52927 0.267904 2.3926 0.25942Z" fill="var(--fill-0, white)"/>
</g>
</svg>
